<?xml version="1.0" encoding="UTF-8"?>
<svg version="1.1" xmlns="http://www.w3.org/2000/svg" width="4675" height="4675">
<path d="M0 0 C1542.75 0 3085.5 0 4675 0 C4675 1542.75 4675 3085.5 4675 4675 C3132.25 4675 1589.5 4675 0 4675 C0 3132.25 0 1589.5 0 0 Z " fill="#1D1D1D" transform="translate(0,0)"/>
<path d="M0 0 C0.76473633 0.3599707 1.52947266 0.71994141 2.31738281 1.09082031 C28.8401687 13.59426579 52.97461449 29.68396003 75 49 C76.01126953 49.86238281 76.01126953 49.86238281 77.04296875 50.7421875 C86.21575066 58.60457199 95.64199167 66.74247862 103.36328125 76.05859375 C105.31961898 78.37911845 107.41248931 80.54670568 109.5 82.75 C138.85169067 114.96527024 160.68264655 155.75852359 174 197 C174.32194336 197.99596191 174.64388672 198.99192383 174.97558594 200.01806641 C182.2469771 222.89280615 186.54263735 246.14750612 189 270 C189.19916016 271.88912109 189.19916016 271.88912109 189.40234375 273.81640625 C196.61738545 359.11203624 168.2729716 445.52312663 113.375 510.8125 C100.98766332 525.30284441 87.91387311 539.96668108 72.87109375 551.74609375 C70.69704811 553.45279352 68.57958379 555.18640927 66.47265625 556.97265625 C48.01011498 572.52302838 27.13072912 584.47414775 6 596 C5.67 714.47 5.34 832.94 5 955 C8.35959861 952.31232112 10.51349355 950.5846733 13.0625 947.4375 C41.08743333 914.90211602 83.54730582 895.92494199 125.85498047 892.21386719 C164.70850838 889.5717549 204.61933528 895.26607428 236 920 C236.5676709 920.44569336 237.1353418 920.89138672 237.72021484 921.35058594 C254.07301758 934.33833933 267.44264266 950.85854279 276 970 C279.92342021 968.60208847 283.38384407 966.69719621 286.97485352 964.6237793 C328.3988159 940.74910369 377.77839189 935.81678862 423.95727539 947.89257812 C455.84963126 956.8389042 481.7734837 977.1109031 498.11816406 1005.97460938 C504.13738865 1017.03077348 510.31764976 1029.43071661 512 1042 C518.30277421 1041.23912455 524.05989032 1040.13393963 529.9375 1037.6875 C535.80665216 1035.29004027 541.70635368 1033.7019806 547.875 1032.25 C548.76695068 1032.03947998 549.65890137 1031.82895996 550.57788086 1031.61206055 C572.22168133 1026.65045742 597.60440952 1026.78284445 619 1033 C619.75587402 1033.20898926 620.51174805 1033.41797852 621.29052734 1033.63330078 C654.29603005 1042.92719366 678.77770221 1064.55642073 695.55615234 1094.05493164 C712.98483232 1125.94482752 717.31900019 1161.44537337 717.26069641 1197.19075012 C717.26372089 1199.82946876 717.26753178 1202.46817583 717.27228898 1205.10689086 C717.2810032 1210.82037123 717.28238023 1216.53381575 717.27878571 1222.2473011 C717.27345422 1230.74437058 717.2795986 1239.24140564 717.28786864 1247.73847138 C717.30307519 1263.80301887 717.30481702 1279.86755055 717.30234561 1295.93210373 C717.30050949 1308.34517138 717.30227925 1320.75823388 717.30657005 1333.17130089 C717.30717247 1334.95778471 717.30777367 1336.74426853 717.30837366 1338.53075236 C717.30928096 1341.22321432 717.31018963 1343.91567627 717.31110601 1346.60813823 C717.31953101 1371.62994514 717.32387451 1396.65175011 717.31969929 1421.67355824 C717.31954291 1422.61604327 717.31938654 1423.55852831 717.31922542 1424.5295735 C717.3184197 1429.30589459 717.31757393 1434.08221568 717.31671212 1438.85853676 C717.31654103 1439.80703778 717.31636994 1440.7555388 717.31619367 1441.73278228 C717.31584701 1443.65088216 717.31549848 1445.56898203 717.31514808 1447.48708191 C717.3097949 1477.31032868 717.31771169 1507.13354586 717.33618164 1536.95678711 C717.35693556 1570.50679312 717.36761765 1604.0567808 717.36360615 1637.60679358 C717.36321085 1641.19010428 717.36284929 1644.77341499 717.36250877 1648.35672569 C717.36237268 1649.68005735 717.36237268 1649.68005735 717.36223383 1651.03012299 C717.36107166 1664.30295018 717.36768729 1677.57575877 717.37832069 1690.84858131 C717.39041667 1705.96190823 717.39188154 1721.07519439 717.37953053 1736.18852196 C717.37294094 1744.62776134 717.37444184 1753.06690303 717.38811904 1761.50613443 C717.3964449 1767.16663286 717.39356216 1772.82705914 717.38214377 1778.48755186 C717.37596641 1781.69736616 717.37579514 1784.90695819 717.38600711 1788.11676738 C717.45195768 1810.41819672 715.69259886 1832.53166227 711.75 1854.5 C711.53875488 1855.68754883 711.32750977 1856.87509766 711.10986328 1858.09863281 C703.98875175 1896.81744023 691.40505426 1935.06938219 673.06298828 1969.95947266 C671.88221951 1972.22609309 670.73586316 1974.50859108 669.58984375 1976.79296875 C659.19510426 1997.3209203 646.89880554 2016.67001856 633 2035 C632.5261084 2035.62551758 632.0522168 2036.25103516 631.56396484 2036.89550781 C626.55965456 2043.45939853 621.35633269 2049.84558247 616 2056.125 C615.56228271 2056.63836914 615.12456543 2057.15173828 614.67358398 2057.68066406 C607.65640232 2065.81178398 600.39950695 2073.71088969 592.74609375 2081.24609375 C592.22713531 2081.75724731 591.70817688 2082.26840088 591.17349243 2082.79504395 C589.05414074 2084.87786289 586.9316826 2086.95732108 584.80053711 2089.02807617 C583.21312472 2090.57318292 581.63531074 2092.12758467 580.05859375 2093.68359375 C579.13361084 2094.58650146 578.20862793 2095.48940918 577.25561523 2096.41967773 C575.05097492 2098.94168699 574.17349493 2100.91966027 573 2104 C571.01430018 2104.70812475 569.01068059 2105.36627449 567 2106 C564.2146891 2107.82187578 561.655825 2109.91695429 559.0625 2112 C502.53175329 2156.19498908 432.48876196 2169.06666479 362.35546875 2172.09765625 C361.39076471 2172.13999641 360.42606068 2172.18233658 359.43212318 2172.22595978 C335.17714398 2173.26168989 310.92191354 2173.30561228 286.64868164 2173.26074219 C280.41973411 2173.24931742 274.19095698 2173.25615717 267.96201515 2173.26762009 C245.00132668 2173.30347168 222.06539363 2173.24084876 199.12890625 2172.09375 C198.32658255 2172.05385201 197.52425884 2172.01395401 196.6976223 2171.97284698 C156.73949566 2169.9192036 116.93331933 2164.21511696 78 2155 C76.21311768 2154.57944336 76.21311768 2154.57944336 74.39013672 2154.15039062 C26.92163343 2142.81948192 -19.96732153 2126.37155284 -61.98242188 2101.28149414 C-69.03016939 2097.0863789 -76.19422167 2093.22553829 -83.5 2089.5 C-95.02185354 2083.60953334 -106.1843313 2077.20818739 -117.30371094 2070.59423828 C-119.78816381 2069.12525266 -122.28420371 2067.67992765 -124.7890625 2066.24609375 C-151.26620233 2051.04420133 -151.26620233 2051.04420133 -159.125 2041.375 C-166.40494055 2032.87910409 -175.1862222 2025.8362437 -184 2019 C-184.93972656 2018.26523438 -185.87945313 2017.53046875 -186.84765625 2016.7734375 C-193.27335988 2011.78559676 -199.77548632 2006.90340572 -206.3125 2002.0625 C-207.0336499 2001.52608887 -207.7547998 2000.98967773 -208.49780273 2000.43701172 C-221.65926551 1990.73335506 -235.32828458 1981.72615292 -248.93579102 1972.66601562 C-251.43295702 1971.0030254 -253.9284659 1969.33757027 -256.42382812 1967.671875 C-265.01020417 1961.94709639 -273.61529808 1956.25829473 -282.32481384 1950.72192383 C-294.14207268 1943.15378437 -304.61953548 1933.84910288 -315.14746094 1924.61865234 C-319.83752995 1920.52071382 -324.58050489 1916.48395676 -329.31787109 1912.44091797 C-330.96381901 1911.03099277 -332.6016895 1909.61217278 -334.23828125 1908.19140625 C-339.89625858 1903.30857699 -345.65371812 1898.7634277 -351.75 1894.4375 C-358.06574971 1889.9170459 -362.99662531 1884.95515103 -368 1879 C-369.97825183 1876.81303671 -371.98938485 1874.65718981 -374 1872.5 C-380.84060405 1865.11253593 -387.58783457 1857.64785841 -394.1953125 1850.05078125 C-396.22958141 1847.73911203 -398.3022231 1845.4646857 -400.375 1843.1875 C-403.48528851 1839.74621795 -406.46478312 1836.23678702 -409.375 1832.625 C-413.05571847 1828.07219493 -416.92648648 1823.76582589 -420.91137695 1819.4831543 C-424.71385014 1815.37239043 -428.24263299 1811.07733477 -431.75390625 1806.71484375 C-434.0883059 1803.89326505 -436.51990598 1801.19409288 -439 1798.5 C-443.01851651 1794.12963181 -446.79787076 1789.62525525 -450.52734375 1785.0078125 C-453.41680589 1781.49298494 -456.38688094 1778.0559488 -459.375 1774.625 C-466.8501842 1766.03718472 -474.25392356 1757.39688036 -481.4375 1748.5625 C-484.89274151 1744.31607618 -488.42697834 1740.14703706 -492 1736 C-496.32235258 1730.98325002 -500.55778457 1725.90817631 -504.73046875 1720.765625 C-507.24099886 1717.70632153 -509.80516192 1714.69690379 -512.375 1711.6875 C-516.17605008 1707.22931474 -519.84601964 1702.69090255 -523.4375 1698.0625 C-527.64083044 1692.64652599 -532.02507446 1687.42620783 -536.51928711 1682.25024414 C-540.45251429 1677.69715103 -544.17182889 1673.00582322 -547.85546875 1668.25 C-551.11982154 1664.05965602 -554.51791287 1660.01060823 -558 1656 C-562.39691922 1650.93177928 -566.60425246 1645.75535326 -570.71923828 1640.45654297 C-574.36034843 1635.78065907 -578.09868456 1631.19221295 -581.875 1626.625 C-582.75901489 1625.55548096 -582.75901489 1625.55548096 -583.66088867 1624.46435547 C-584.2510376 1623.75037598 -584.84118652 1623.03639648 -585.44921875 1622.30078125 C-593.36445654 1612.72418719 -601.18972887 1603.08060473 -608.83666992 1593.28833008 C-612.33802935 1588.81496846 -615.90838712 1584.4011092 -619.5 1580 C-624.02919655 1574.44878995 -628.49947083 1568.85753389 -632.91064453 1563.2121582 C-636.19747135 1559.00889233 -639.52923953 1554.84394091 -642.875 1550.6875 C-646.60928983 1546.04706453 -650.26641516 1541.35823873 -653.85864258 1536.60693359 C-668.52353123 1517.22389023 -684.59394713 1498.68820115 -704.29785156 1484.25341797 C-706.03639114 1482.97320251 -707.74938616 1481.66368102 -709.4609375 1480.34765625 C-724.88076282 1468.61039827 -741.74961277 1459.08084057 -758.53173828 1449.45727539 C-837.14158616 1404.33763284 -837.14158616 1404.33763284 -849.5 1363.75 C-857.65005838 1330.45677768 -845.6042829 1296.4908193 -829 1268 C-820.80832507 1254.51786834 -810.90679527 1242.35746041 -800 1231 C-799.45827148 1230.43104004 -798.91654297 1229.86208008 -798.35839844 1229.27587891 C-782.17560266 1212.35834168 -765.06793564 1199.59091348 -742 1194 C-741.33709961 1193.83628906 -740.67419922 1193.67257812 -739.99121094 1193.50390625 C-678.34633043 1179.15271714 -605.85321414 1204.02087546 -550 1229 C-548.8857666 1229.49612793 -547.7715332 1229.99225586 -546.62353516 1230.50341797 C-506.43143 1248.50757482 -466.79280616 1270.97413964 -434.2109375 1300.97265625 C-432.26017089 1302.7614334 -430.27019605 1304.47843119 -428.25 1306.1875 C-419.88848933 1313.47614881 -411.93168184 1321.50591363 -404.75390625 1329.9609375 C-402.4757902 1332.60943768 -400.1150778 1335.17945862 -397.75 1337.75 C-397.04254639 1338.51920776 -397.04254639 1338.51920776 -396.32080078 1339.30395508 C-395.35615254 1340.35239346 -394.39130739 1341.4006507 -393.42626953 1342.44873047 C-391.17428659 1344.89807994 -388.93207349 1347.35636141 -386.6875 1349.8125 C-380.79790537 1356.24279258 -374.85014212 1362.61830068 -368.88867188 1368.98193359 C-366.94907395 1371.05441504 -365.01357365 1373.13067506 -363.078125 1375.20703125 C-355.86338024 1382.92869148 -348.54450439 1390.51230635 -341.03393555 1397.94677734 C-337.31423865 1401.64190689 -333.74927103 1405.40687046 -330.36328125 1409.4140625 C-328.36346237 1411.74049937 -326.20151176 1413.86520072 -324 1416 C-322.6501013 1403.32763853 -322.79187822 1390.61077284 -322.71875 1377.8828125 C-322.70095633 1375.38118685 -322.68271674 1372.87956433 -322.6640625 1370.37794495 C-322.62511223 1365.05913589 -322.58865482 1359.74031922 -322.55444336 1354.42147827 C-322.50050831 1346.06064939 -322.43963816 1337.69987871 -322.37695312 1329.33911133 C-322.37173865 1328.64312257 -322.36652418 1327.94713382 -322.3611517 1327.2300545 C-322.33478435 1323.71440344 -322.30830697 1320.19875322 -322.28175354 1316.68310356 C-322.26049876 1313.86597276 -322.23945854 1311.04884048 -322.21861267 1308.23170662 C-322.03225756 1283.04967992 -321.79720495 1257.86847249 -321.5 1232.6875 C-321.4896875 1231.81158833 -321.479375 1230.93567665 -321.46875 1230.0332222 C-321.07860814 1197.02065795 -320.62602305 1164.00901569 -320 1131 C-319.98173157 1130.02677795 -319.96346313 1129.05355591 -319.94464111 1128.05084229 C-319.89287024 1125.32162601 -319.83941625 1122.59244908 -319.78515625 1119.86328125 C-319.77093124 1119.12136032 -319.75670624 1118.37943939 -319.74205017 1117.61503601 C-319.43879184 1102.8592837 -318.89956812 1088.12079473 -318.1884821 1073.37968186 C-317.09016103 1050.4565918 -316.30310141 1027.5286442 -315.59892595 1004.59056997 C-315.43289235 999.20577437 -315.26312804 993.821096 -315.09385681 988.43640137 C-314.80273993 979.16097167 -314.51378829 969.88547672 -314.22636223 960.60993195 C-313.81023361 947.18256088 -313.39010095 933.75531721 -312.96898181 920.32810184 C-312.28463946 898.50623851 -311.60267134 876.68430175 -310.92260742 854.86230469 C-310.86189448 852.9141738 -310.86189448 852.9141738 -310.79995502 850.92668673 C-310.63591953 845.66301223 -310.47189437 840.39933741 -310.30788132 835.13566221 C-309.85452321 820.58620154 -309.40088063 806.03674974 -308.94702148 791.48730469 C-308.9062944 790.18168494 -308.86556731 788.87606518 -308.82360607 787.5308812 C-308.14388675 765.74271713 -307.46219785 743.95461507 -306.7792092 722.16655326 C-306.35941379 708.77134232 -305.94144256 695.37607681 -305.52587331 681.98073408 C-305.24156575 672.81978989 -304.95551174 663.65890131 -304.66809791 654.49805406 C-304.50263234 649.22201061 -304.33798334 643.94594501 -304.17554474 638.66980743 C-304.02660257 633.83241772 -303.87532772 628.99510654 -303.72227354 624.15784523 C-303.66760643 622.41732632 -303.61376967 620.67678107 -303.56089317 618.93620685 C-303.23644597 608.2743326 -302.73297501 597.64186754 -302 587 C-303.13610718 586.56107422 -303.13610718 586.56107422 -304.29516602 586.11328125 C-307.69915378 584.71223565 -310.7944834 582.89783243 -313.9375 581 C-314.59282715 580.60482178 -315.2481543 580.20964355 -315.92333984 579.80249023 C-322.87374517 575.55131195 -329.47110397 570.86737327 -336 566 C-336.54366211 565.59668457 -337.08732422 565.19336914 -337.64746094 564.77783203 C-341.48550707 561.91831478 -345.25718274 558.98282536 -349 556 C-349.99386719 555.21367187 -350.98773437 554.42734375 -352.01171875 553.6171875 C-360.622841 546.60456125 -368.44934659 538.7627723 -376.3125 530.9375 C-376.8723056 530.38296143 -377.43211121 529.82842285 -378.00888062 529.25708008 C-385.14278116 522.17506862 -391.79661614 514.92908485 -398 507 C-398.57242432 506.28158936 -399.14484863 505.56317871 -399.73461914 504.82299805 C-407.82523138 494.62554549 -415.17473995 484.08043537 -422 473 C-422.41846191 472.32533691 -422.83692383 471.65067383 -423.26806641 470.95556641 C-469.28983369 396.31159973 -481.79157739 305.5858304 -461.9140625 220.57788086 C-456.66811576 199.25740847 -449.28060793 178.88308286 -440 159 C-439.35224609 157.61167969 -439.35224609 157.61167969 -438.69140625 156.1953125 C-424.92798466 127.03482877 -406.83329237 101.15164664 -385.15234375 77.375 C-383.75120328 75.82891396 -382.36728206 74.26698822 -381.00390625 72.6875 C-370.85938325 61.02801042 -359.21901375 50.44496739 -347 41 C-346.11924805 40.3184082 -346.11924805 40.3184082 -345.22070312 39.62304688 C-314.31290542 15.80678448 -280.21026166 -2.98437278 -243 -15 C-242.00403809 -15.32194336 -241.00807617 -15.64388672 -239.98193359 -15.97558594 C-217.12071903 -23.24267773 -193.84748731 -27.59229936 -170 -30 C-169.29182129 -30.07202637 -168.58364258 -30.14405273 -167.85400391 -30.21826172 C-111.13034137 -35.63351135 -51.25989206 -24.75500477 0 0 Z " fill="#616E7E" transform="translate(2478,1625)"/>
<path d="M0 0 C0.66129913 0.00026688 1.32259827 0.00053375 2.00393677 0.00080872 C87.72953391 0.04401263 172.52468904 10.59514362 309.5 46.1875 C310.22878357 46.41223999 310.95756714 46.63697998 311.70843506 46.86853027 C345.97438445 57.45445362 379.68264892 69.6996914 412.5 84.1875 C413.6334082 84.68427246 414.76681641 85.18104492 415.93457031 85.69287109 C451.87742752 101.47374021 487.17846676 118.61323805 520.9375 138.68164062 C524.52690374 140.79096249 528.16680331 142.80271646 531.8125 144.8125 C539.99796538 149.36452475 547.87660189 154.37557172 555.75732422 159.43212891 C558.79192961 161.37434119 561.83504551 163.30279624 564.87890625 165.23046875 C567.0861062 166.63254696 569.29313908 168.03488821 571.5 169.4375 C572.52601318 170.08662354 573.55202637 170.73574707 574.60913086 171.40454102 C580.52918673 175.18047563 586.25816945 179.13232841 591.90966797 183.29882812 C594.99192855 185.54617665 598.13996309 187.67853646 601.30834961 189.80175781 C611.06406929 196.340087 620.33389291 203.37144467 629.54150391 210.65380859 C632.20065185 212.736178 634.9076726 214.74409165 637.625 216.75 C644.47267736 221.8501425 651.0596055 227.26426009 657.65917969 232.67871094 C659.27213087 234.00073193 660.88960493 235.31723076 662.5078125 236.6328125 C672.28230673 244.5834944 681.91944807 252.67511253 691.24609375 261.1484375 C693.2688269 262.97836247 695.31369435 264.77631728 697.375 266.5625 C702.27013327 270.83355253 707.05214257 275.22658131 711.82080078 279.63769531 C712.92345039 280.65537774 714.02852337 281.67044197 715.13623047 282.68261719 C725.21323172 291.89167235 734.90241472 301.48309905 744.5625 311.125 C745.19896454 311.75887634 745.83542908 312.39275269 746.49118042 313.0458374 C759.06254387 325.5768775 759.06254387 325.5768775 764.11694336 331.59008789 C765.66533308 333.37845752 767.3114641 335.03156321 769 336.6875 C772.03594925 339.67622337 774.84508659 342.80456479 777.625 346.03125 C779.67359094 348.38712958 781.77203002 350.6925746 783.875 353 C787.73022386 357.27060151 791.37582515 361.67523669 794.9921875 366.1484375 C797.88832427 369.65808611 800.87695826 373.07754592 803.875 376.5 C809.48509406 382.92845244 814.81467385 389.52630307 820.02392578 396.28173828 C821.61871479 398.34077285 823.22812291 400.3877889 824.83984375 402.43359375 C832.45256211 412.11759088 839.7734282 421.97159468 846.92626953 431.99902344 C848.42142428 434.07823025 849.93785169 436.13941534 851.46484375 438.1953125 C867.33285936 459.65105724 881.72840182 482.34215537 895.5 505.1875 C896.00869629 506.02764648 896.51739258 506.86779297 897.04150391 507.73339844 C918.33093159 542.98429921 937.774114 579.55090622 954.5 617.1875 C954.79070374 617.840672 955.08140747 618.49384399 955.38092041 619.16680908 C984.07479556 683.74975864 1006.47436116 751.1197364 1021.5 820.1875 C1021.75719818 821.36937897 1021.75719818 821.36937897 1022.01959229 822.57513428 C1036.49888099 889.45485195 1044.44559153 957.75639048 1045.5 1026.1875 C1045.53287109 1028.1665332 1045.53287109 1028.1665332 1045.56640625 1030.18554688 C1046.91009627 1119.59506618 1036.65367578 1209.42939329 986.5 1391.1875 C986.11376465 1392.31961914 985.7275293 1393.45173828 985.32958984 1394.61816406 C971.97562585 1433.48937338 955.16471329 1471.09073028 937.08105469 1507.96240234 C935.66398412 1510.85299873 934.25680569 1513.74817491 932.8515625 1516.64453125 C927.04073655 1528.53394712 920.60440893 1540.02137739 914.02685547 1551.50097656 C912.23200632 1554.65903862 910.48471093 1557.841134 908.74365234 1561.02905273 C893.17426365 1589.4806785 875.31978243 1616.79547691 856.5 1643.1875 C855.45888062 1644.65558105 855.45888062 1644.65558105 854.39672852 1646.15332031 C853.69990967 1647.12624023 853.00309082 1648.09916016 852.28515625 1649.1015625 C851.34361694 1650.41954834 851.34361694 1650.41954834 850.38305664 1651.76416016 C845.55128071 1657.98226049 839.50682956 1663.23475846 831.50512695 1664.50390625 C829.3889905 1664.66071294 827.30927634 1664.70573327 825.1875 1664.6875 C824.44274414 1664.68395508 823.69798828 1664.68041016 822.93066406 1664.67675781 C816.53660467 1664.4850194 811.7809061 1662.86813153 806.5 1659.1875 C805.613125 1658.589375 804.72625 1657.99125 803.8125 1657.375 C801.21499582 1654.91790145 798.90748721 1652.3106728 796.5859375 1649.59375 C794.11228836 1646.74025211 791.56058599 1643.96262627 789 1641.1875 C785.35537985 1637.22932448 781.7608522 1633.23572015 778.234375 1629.171875 C774.70499286 1625.13375309 771.09365774 1621.16835319 767.5 1617.1875 C765.99971321 1615.52109149 764.49971128 1613.85442647 763 1612.1875 C762.2575 1611.3625 761.515 1610.5375 760.75 1609.6875 C754 1602.1875 754 1602.1875 751.75390625 1599.6875 C750.24662264 1598.01564297 748.73354852 1596.34898898 747.21484375 1594.6875 C727.96961676 1573.56066419 727.96961676 1573.56066419 728.29907227 1559.38916016 C729.1502163 1550.06277271 733.88536864 1542.90670861 739.04611206 1535.35473633 C741.22223348 1532.16761544 743.35400205 1528.95091875 745.4921875 1525.73828125 C745.92162155 1525.0953714 746.3510556 1524.45246155 746.79350281 1523.79006958 C757.47932726 1507.75438902 767.12077739 1491.01321986 776.5 1474.1875 C777.00321777 1473.28547852 777.50643555 1472.38345703 778.02490234 1471.45410156 C813.64632768 1407.30634727 840.87000054 1339.1576134 859.5 1268.1875 C859.8023053 1267.03855255 859.8023053 1267.03855255 860.11071777 1265.86639404 C873.26547899 1215.69273435 881.37413706 1164.65269614 885.73828125 1112.99609375 C885.80153091 1112.25482742 885.86478058 1111.5135611 885.9299469 1110.74983215 C887.1044794 1096.36790257 887.66712679 1082.0550821 887.703125 1067.62890625 C887.71014416 1065.88397699 887.717231 1064.139048 887.72438049 1062.39411926 C887.7437944 1056.84607579 887.7488145 1051.29807401 887.75 1045.75 C887.75044186 1044.80570381 887.75088371 1043.86140762 887.75133896 1042.8884964 C887.75794 1016.00813721 887.68583493 989.24730158 884.75 962.49639893 C884.4868699 960.06623572 884.2400428 957.63479702 883.99609375 955.20263672 C875.08263475 867.08660826 853.22366382 780.11118586 773.26025391 607.21630859 C771.6842176 604.50447691 770.12337585 601.78443001 768.56756592 599.06095886 C759.1856512 582.65741842 749.20278925 566.79187987 738.546875 551.18652344 C736.67677107 548.44649998 734.82014822 545.69799346 732.96875 542.9453125 C725.447558 531.80097729 717.57643803 520.93529848 709.5 510.1875 C709.0452832 509.58212402 708.59056641 508.97674805 708.12207031 508.35302734 C701.62121316 499.73102195 694.82360017 491.35706008 687.98388672 483.00341797 C686.69366805 481.42450279 685.41064412 479.83971373 684.12890625 478.25390625 C674.99872517 466.97938906 665.44770519 456.08236928 655.546875 445.48046875 C653.11284717 442.87107779 650.7390759 440.21216129 648.36645508 437.546875 C643.91473341 432.59786712 639.30224752 427.84437802 634.58984375 423.14453125 C633.37223106 421.92548347 633.37223106 421.92548347 632.13002014 420.68180847 C630.42962282 418.98073649 628.72798554 417.28090311 627.02514648 415.58227539 C624.43683345 412.99933484 621.85392439 410.41107659 619.27148438 407.82226562 C617.60709146 406.15853335 615.94238846 404.49511121 614.27734375 402.83203125 C613.51566391 402.06832718 612.75398407 401.30462311 611.96922302 400.51777649 C607.84960105 396.41591554 603.64720572 392.47343709 599.23629761 388.6856842 C596.65712647 386.46021695 594.18021963 384.13438989 591.6875 381.8125 C587.08955619 377.56388663 582.35229272 373.55367861 577.47265625 369.62890625 C573.95731552 366.74179987 570.54463543 363.74912442 567.125 360.75 C561.02995563 355.4275561 554.77429292 350.44323489 548.31201172 345.56982422 C546.28751207 344.02539994 544.28534184 342.45468744 542.28515625 340.87890625 C541.53468018 340.28907959 540.7842041 339.69925293 540.01098633 339.09155273 C538.58271191 337.96771776 537.15648761 336.84126797 535.7331543 335.71118164 C521.88420088 324.85144346 507.13502846 315.13036402 492.5 305.375 C491.65238098 304.80956482 490.80476196 304.24412964 489.93145752 303.66156006 C476.89443884 294.97806673 463.75926514 286.58064396 450.19238281 278.74316406 C447.56531786 277.22524079 444.95003903 275.68855153 442.3359375 274.1484375 C428.81813904 266.24285248 414.93426971 259.0629063 400.98193359 251.96435547 C397.85137123 250.36680724 394.7310721 248.75118445 391.61328125 247.12890625 C351.66167993 226.51936659 309.26506336 210.83085051 266.5 197.1875 C265.85240723 196.98016235 265.20481445 196.77282471 264.53759766 196.5592041 C180.70789726 169.76375499 91.99709161 156.90441988 4.0625 157 C2.49035233 157.00090637 2.49035233 157.00090637 0.88644409 157.00183105 C-73.81714282 157.11715018 -148.1989591 166.28119333 -220.5 185.1875 C-221.20882324 185.37227905 -221.91764648 185.55705811 -222.64794922 185.74743652 C-246.26540337 191.92059947 -269.45958129 199.1302357 -292.5 207.1875 C-293.16666687 207.42017578 -293.83333374 207.65285156 -294.52020264 207.89257812 C-344.31039853 225.30473418 -393.00556756 247.46419085 -438.5 274.1875 C-440.14137939 275.14487061 -440.14137939 275.14487061 -441.81591797 276.12158203 C-454.99146085 283.80687065 -468.08138139 291.59984864 -480.78613281 300.04833984 C-482.34994939 301.08776551 -483.92071619 302.11671516 -485.4921875 303.14453125 C-506.82525633 317.17944495 -527.59549025 332.19025321 -547.5 348.1875 C-548.1403418 348.7016748 -548.78068359 349.21584961 -549.44042969 349.74560547 C-558.02399113 356.65103709 -566.51561603 363.65637202 -574.88916016 370.81494141 C-576.53894684 372.22068568 -578.19654745 373.61677109 -579.85546875 375.01171875 C-596.55105531 389.10279318 -611.98298816 404.50633366 -627.40307617 419.96020508 C-630.05523875 422.6181234 -632.71195038 425.27144273 -635.36995792 427.92351437 C-637.45058578 430.00050847 -639.52880164 432.07990293 -641.60632133 434.16000557 C-642.58504693 435.13938958 -643.56449166 436.11805557 -644.54472542 437.0959301 C-650.08247139 442.6232391 -655.41887328 448.23823968 -660.5 454.1875 C-661.95445517 455.79518373 -663.41220895 457.39989715 -664.875 459 C-668.77363397 463.32010791 -672.47503858 467.76821381 -676.1328125 472.29296875 C-678.1841017 474.80122832 -680.27467328 477.26888433 -682.38745117 479.7253418 C-688.90129737 487.31296304 -694.95779612 495.21505557 -700.98486328 503.19189453 C-702.34203403 504.97944105 -703.7109756 506.75651308 -705.08984375 508.52734375 C-759.62288672 578.61600352 -802.38452704 658.42194224 -886.5 1033.1875 C-886.51659668 1034.20150879 -886.53319336 1035.21551758 -886.55029297 1036.26025391 C-886.64140928 1042.9049951 -886.60859509 1049.54316761 -886.5 1056.1875 C-886.48211426 1057.31897461 -886.46422852 1058.45044922 -886.44580078 1059.61621094 C-884.93310816 1142.31743551 -871.95583972 1224.66658988 -772.90625 1477.73779297 C-771.66572765 1479.89880012 -770.44950482 1482.06995382 -769.25 1484.25390625 C-759.02235819 1502.87148565 -747.65263096 1520.8474197 -735.64038086 1538.359375 C-729.0887879 1547.99372568 -725.25359826 1556.36293144 -727.0625 1568.25 C-729.34215769 1577.76831102 -736.32433707 1584.41536292 -742.8359375 1591.34375 C-744.96027219 1593.61136827 -747.03064865 1595.90037095 -749.0625 1598.25 C-752.66943661 1602.4105192 -756.38691707 1606.4672933 -760.09765625 1610.53515625 C-762.06941844 1612.71210996 -764.01365337 1614.90588674 -765.9375 1617.125 C-769.36768576 1621.07417367 -772.91003518 1624.91772305 -776.45288086 1628.76538086 C-779.00540453 1631.5422637 -781.52975746 1634.33722015 -784 1637.1875 C-786.98948881 1640.63191102 -790.04686483 1644.00995476 -793.125 1647.375 C-793.58068359 1647.87451172 -794.03636719 1648.37402344 -794.50585938 1648.88867188 C-803.72180973 1658.93392401 -810.44210118 1664.51082617 -824.5 1665.1875 C-832.40487235 1664.74278144 -838.7827232 1661.9394538 -844.3581543 1656.31201172 C-849.43593596 1650.62401056 -853.88600296 1644.66543628 -858.1875 1638.375 C-858.88029053 1637.36945068 -859.57308105 1636.36390137 -860.28686523 1635.32788086 C-866.87103 1625.72858727 -873.25444165 1616.00980982 -879.5 1606.1875 C-880.08604004 1605.2692041 -880.67208008 1604.3509082 -881.27587891 1603.40478516 C-899.71483175 1574.45028811 -916.36078198 1544.48786649 -932.06494141 1513.97412109 C-932.98567586 1512.18622332 -933.90955531 1510.39993965 -934.83740234 1508.61572266 C-974.4565663 1432.31049332 -1002.22289333 1348.41317802 -1043.5 1061.1875 C-1043.52191406 1059.88490234 -1043.54382812 1058.58230469 -1043.56640625 1057.24023438 C-1044.93601229 968.2726834 -1034.67542571 878.82068541 -963.5 642.1875 C-963.19813782 641.46709534 -962.89627563 640.74669067 -962.58526611 640.00445557 C-954.15261929 619.92730116 -944.90765943 600.27668513 -935.26123047 580.75683594 C-933.73738194 577.66858179 -932.22673113 574.57447427 -930.72265625 571.4765625 C-924.95609452 559.671776 -918.5569844 548.27085404 -912.02685547 536.87402344 C-910.23177239 533.71554979 -908.48427892 530.53302045 -906.74291992 527.34472656 C-896.56681969 508.74782446 -885.17971723 490.8681469 -873.5 473.1875 C-873.11650391 472.60468262 -872.73300781 472.02186523 -872.33789062 471.42138672 C-849.03300441 436.01588651 -823.43375993 402.16319484 -795.95458984 369.89648438 C-794.97460698 368.74511142 -793.99578855 367.59274646 -793.01806641 366.43945312 C-787.23322675 359.61601893 -781.37884629 352.88074092 -775.30175781 346.31542969 C-772.73473477 343.54214475 -770.21695919 340.73755176 -767.75 337.875 C-765.07831244 334.78983698 -762.25540011 331.91833268 -759.34230042 329.0622406 C-757.5626691 327.25127261 -755.90722419 325.38273606 -754.25756836 323.45336914 C-750.6248937 319.2772881 -746.79756508 315.34024508 -742.87890625 311.43359375 C-741.82351906 310.37677147 -741.82351906 310.37677147 -740.74681091 309.29859924 C-739.26985352 307.82096633 -737.79165258 306.34457543 -736.31225586 304.86938477 C-734.06834915 302.63083519 -731.82983296 300.38699527 -729.59179688 298.14257812 C-728.14615382 296.69759596 -726.70020055 295.25292408 -725.25390625 293.80859375 C-724.5953212 293.14798447 -723.93673615 292.48737518 -723.25819397 291.80674744 C-719.38318209 287.95089621 -715.39562989 284.28355179 -711.25865173 280.71034241 C-709.29378793 279.00893793 -707.38660029 277.256388 -705.5 275.46875 C-704.84 274.84613281 -704.18 274.22351562 -703.5 273.58203125 C-702.84 272.95683594 -702.18 272.33164063 -701.5 271.6875 C-696.26739635 266.73083443 -690.95608338 261.89736949 -685.5 257.1875 C-684.91782715 256.6831543 -684.3356543 256.17880859 -683.73583984 255.65917969 C-676.0881422 249.04602782 -668.35477637 242.55400295 -660.5 236.1875 C-659.23922178 235.15669206 -657.97883109 234.12541001 -656.71875 233.09375 C-648.42121224 226.30958704 -640.04935896 219.6530296 -631.5 213.1875 C-630.89752441 212.73052734 -630.29504883 212.27355469 -629.67431641 211.80273438 C-624.96932127 208.2375035 -620.23967393 204.70645055 -615.5 201.1875 C-614.86126953 200.71038574 -614.22253906 200.23327148 -613.56445312 199.74169922 C-570.90860277 167.96633861 -524.86179757 140.19981673 -477.62890625 115.84765625 C-474.63829691 114.30479964 -471.66180831 112.7457541 -468.71484375 111.12109375 C-455.98263288 104.11910867 -442.73190889 98.17227838 -429.5 92.1875 C-428.86906433 91.90179138 -428.23812866 91.61608276 -427.58807373 91.32171631 C-355.49461205 58.72002715 -279.48776985 34.11790649 -54.5 1.1875 C-53.21509674 1.12394821 -53.21509674 1.12394821 -51.90423584 1.05911255 C-34.60111267 0.22339006 -17.32181565 -0.01467674 0 0 Z " fill="#626E7E" transform="translate(2336.5,890.8125)"/>
<path d="M0 0 C1.37999502 -0.00702478 2.75998972 -0.01411157 4.13998413 -0.02125549 C8.52822336 -0.04065646 12.91640971 -0.04569016 17.3046875 -0.046875 C18.05309906 -0.04731686 18.80151062 -0.04775871 19.57260132 -0.04821396 C42.89515091 -0.05543232 66.00638508 0.33702974 89.1796875 3.203125 C89.88629517 3.28798157 90.59290283 3.37283813 91.32092285 3.46026611 C174.68032977 13.47613861 255.1620654 39.6738777 358.1796875 99.203125 C358.83340332 99.62658203 359.48711914 100.05003906 360.16064453 100.48632812 C370.75765567 107.36743338 380.99340776 114.73121958 391.1796875 122.203125 C391.74284668 122.6141748 392.30600586 123.02522461 392.88623047 123.44873047 C405.01929289 132.31860325 416.60534302 141.91760493 428.01928711 151.68896484 C430.14549953 153.50585294 432.25944897 155.25990883 434.5390625 156.8828125 C435.08046875 157.31851562 435.621875 157.75421875 436.1796875 158.203125 C436.1796875 158.863125 436.1796875 159.523125 436.1796875 160.203125 C436.7687085 160.47068604 437.35772949 160.73824707 437.96459961 161.01391602 C440.21054528 162.21969155 441.77337016 163.48454092 443.62109375 165.23046875 C444.27803223 165.84857422 444.9349707 166.46667969 445.61181641 167.10351562 C446.31483887 167.77576172 447.01786133 168.44800781 447.7421875 169.140625 C448.47872559 169.83994141 449.21526367 170.53925781 449.97412109 171.25976562 C455.81907157 176.83853472 461.57957841 182.50164317 467.3046875 188.203125 C468.08529541 188.97906006 468.86590332 189.75499512 469.67016602 190.55444336 C473.80689755 194.70275614 477.77576555 198.93697095 481.59814453 203.37646484 C483.85489836 205.98298416 486.20472746 208.49277 488.5546875 211.015625 C493.67215143 216.55646357 498.45212228 222.32584337 503.1796875 228.203125 C503.83839844 228.99332031 504.49710938 229.78351563 505.17578125 230.59765625 C535.6267107 267.15028423 560.85031879 307.75646937 582.1796875 350.203125 C582.72625 351.28158691 583.2728125 352.36004883 583.8359375 353.47119141 C617.92608287 421.02663272 638.16031585 495.97046058 645.1796875 571.203125 C645.3341333 572.7509668 645.3341333 572.7509668 645.49169922 574.33007812 C653.80332804 660.41386727 641.80827735 748.18352266 592.61523438 885.06787109 C591.62218245 887.23671002 590.63701151 889.40916841 589.65820312 891.58447266 C588.12293022 894.98778935 586.56162003 898.37794443 584.9921875 901.765625 C584.52949463 902.79461914 584.06680176 903.82361328 583.59008789 904.88378906 C579.14408084 914.30804412 573.13904879 921.49974906 563.1796875 925.203125 C555.20380504 927.69348492 546.06622224 927.06292911 538.5234375 923.59765625 C531.62169819 919.49112136 526.08386623 913.49053363 521.1796875 907.203125 C521.1796875 906.543125 521.1796875 905.883125 521.1796875 905.203125 C520.1896875 904.873125 519.1996875 904.543125 518.1796875 904.203125 C516.57421875 902.64453125 516.57421875 902.64453125 514.9921875 900.765625 C514.19748047 899.83943359 514.19748047 899.83943359 513.38671875 898.89453125 C512.1796875 897.203125 512.1796875 897.203125 512.1796875 895.203125 C511.5196875 895.203125 510.8596875 895.203125 510.1796875 895.203125 C508.8046875 893.83984375 508.8046875 893.83984375 507.1796875 891.890625 C504.24219328 888.43294951 501.24244134 885.05067759 498.1796875 881.703125 C494.75500896 877.94835696 491.37565617 874.16345329 488.05078125 870.3203125 C486.56500405 868.63911993 485.05093327 866.98294002 483.52734375 865.3359375 C482.83705078 864.58957031 482.83705078 864.58957031 482.1328125 863.828125 C480.79931758 862.38974846 479.46032491 860.95647472 478.12109375 859.5234375 C476.1796875 857.203125 476.1796875 857.203125 476.1796875 855.203125 C475.5196875 855.203125 474.8596875 855.203125 474.1796875 855.203125 C472.8046875 853.875 472.8046875 853.875 471.1796875 851.953125 C470.56609375 851.22867188 469.9525 850.50421875 469.3203125 849.7578125 C468.61390625 848.91476562 467.9075 848.07171875 467.1796875 847.203125 C465.90351563 845.72199219 465.90351563 845.72199219 464.6015625 844.2109375 C463.71039562 843.16712906 462.81976786 842.12286009 461.9296875 841.078125 C461.09953125 840.10617187 460.269375 839.13421875 459.4140625 838.1328125 C456.07810265 833.75873927 453.95854424 829.6639728 453.1796875 824.203125 C453.06625 823.47996094 452.9528125 822.75679687 452.8359375 822.01171875 C452.10776855 810.96175497 457.34778815 800.56763804 461.23339844 790.46289062 C476.91808506 749.53003536 485.05579397 706.7239872 489.1796875 663.203125 C489.26589355 662.30029785 489.35209961 661.3974707 489.44091797 660.46728516 C489.89619207 655.37847804 490.09889325 650.31080768 490.1796875 645.203125 C490.20015137 644.02556641 490.22061523 642.84800781 490.24169922 641.63476562 C491.64418946 551.42066034 469.18417797 463.90427356 423.1796875 386.203125 C422.74446777 385.46803711 422.30924805 384.73294922 421.86083984 383.97558594 C408.11126825 360.96698853 392.03115123 339.17849169 374.1796875 319.203125 C373.35339844 318.27628906 372.52710937 317.34945313 371.67578125 316.39453125 C370.20572266 314.7557355 368.73064355 313.12142611 367.25 311.4921875 C365.91858479 310.02009446 364.59970848 308.5365101 363.296875 307.0390625 C352.66128692 294.90197964 341.23709252 282.94734598 328.4921875 273.01953125 C326.24375207 271.25344599 324.15563777 269.3909333 322.0546875 267.453125 C315.14117611 261.24331031 307.61126406 255.77011231 300.1796875 250.203125 C299.52097656 249.70844727 298.86226562 249.21376953 298.18359375 248.70410156 C232.59515745 199.57983818 154.7136983 169.58325104 73.4921875 159.953125 C72.7922467 159.86985962 72.09230591 159.78659424 71.37115479 159.70080566 C54.02598239 157.66621433 36.82217357 156.99427479 19.3671875 157.015625 C18.37358215 157.01656158 17.37997681 157.01749817 16.35626221 157.01846313 C-80.60958191 157.2159793 -173.96152087 187.91197196 -270.8203125 256.203125 C-271.46097656 256.71375488 -272.10164063 257.22438477 -272.76171875 257.75048828 C-274.84816983 259.41677879 -276.92915382 261.08962565 -279.0078125 262.765625 C-279.6371167 263.27158203 -280.2664209 263.77753906 -280.91479492 264.29882812 C-289.72734615 271.46294744 -297.97900978 279.2054141 -306.01171875 287.2265625 C-306.84186996 288.05338531 -307.67202118 288.88020813 -308.52732849 289.73208618 C-310.26716044 291.46689642 -312.00567796 293.20302583 -313.74291992 294.94042969 C-316.37463062 297.56994993 -319.01425091 300.19135183 -321.65429688 302.8125 C-329.83316836 310.96424301 -337.78157515 319.03234265 -344.8203125 328.203125 C-346.31506302 330.01995662 -347.8146399 331.83283456 -349.3203125 333.640625 C-405.20431701 402.09369627 -439.69704005 487.40133806 -450.0703125 574.890625 C-450.15357788 575.5905658 -450.23684326 576.29050659 -450.32263184 577.01165771 C-459.47990077 655.07864147 -447.10542358 734.22273097 -417.69311523 806.87011719 C-414.59571987 815.14947664 -414.80652285 824.00415801 -418.1171875 832.19921875 C-421.96245543 838.98135417 -427.52542983 844.5354849 -432.8203125 850.203125 C-433.98620256 851.46566078 -435.15157485 852.72867492 -436.31640625 853.9921875 C-438.5204885 856.37623349 -440.73351912 858.75150075 -442.953125 861.12109375 C-445.75526952 864.12002318 -448.47325777 867.18313553 -451.15625 870.2890625 C-454.65324183 874.311424 -458.24890615 878.24692066 -461.8203125 882.203125 C-463.32059929 883.86953351 -464.82060122 885.53619853 -466.3203125 887.203125 C-469.3203125 890.53645833 -472.3203125 893.86979167 -475.3203125 897.203125 C-476.06023437 898.02554688 -476.80015625 898.84796875 -477.5625 899.6953125 C-479.08739494 901.38905394 -480.61346652 903.08173669 -482.140625 904.7734375 C-482.90117188 905.61648438 -483.66171875 906.45953125 -484.4453125 907.328125 C-485.19039062 908.14925781 -485.93546875 908.97039063 -486.703125 909.81640625 C-488.04316468 911.32704139 -489.35483176 912.86375378 -490.625 914.43359375 C-495.42206856 920.3249245 -501.1751152 924.80667752 -508.8203125 926.203125 C-519.12750155 926.92062678 -527.25222889 926.27181899 -535.6328125 919.953125 C-556.88915623 899.45125026 -567.22315864 858.83812204 -576.8203125 831.203125 C-577.20638672 830.10484375 -577.59246094 829.0065625 -577.99023438 827.875 C-593.89951914 782.215077 -603.19063656 734.26242075 -607.8203125 686.203125 C-607.93745605 685.0490918 -608.05459961 683.89505859 -608.17529297 682.70605469 C-611.76677906 646.04407925 -611.53957281 607.84321071 -607.8203125 571.203125 C-607.6349292 569.27871582 -607.6349292 569.27871582 -607.44580078 567.31542969 C-599.60573741 486.91419888 -575.54499073 410.29052107 -519.8203125 304.203125 C-519.31725586 303.37893066 -518.81419922 302.55473633 -518.29589844 301.70556641 C-506.76812641 282.89609769 -494.31532348 264.65542516 -480.8203125 247.203125 C-480.3567334 246.60064941 -479.8931543 245.99817383 -479.41552734 245.37744141 C-473.22862487 237.35113106 -466.82495951 229.5356422 -460.22509766 221.84619141 C-458.80432068 220.18442063 -457.39528497 218.51328522 -455.98828125 216.83984375 C-445.04539831 203.8695427 -433.35618207 191.66038586 -421.3828125 179.640625 C-420.55458984 178.80772949 -419.72636719 177.97483398 -418.87304688 177.11669922 C-414.60174453 172.8565828 -410.25872195 168.75141304 -405.68481445 164.81811523 C-402.20021019 161.79982831 -398.85586064 158.62803747 -395.49023438 155.47851562 C-386.59231112 147.203125 -386.59231112 147.203125 -383.8203125 147.203125 C-383.8203125 146.543125 -383.8203125 145.883125 -383.8203125 145.203125 C-382.37890625 143.8984375 -382.37890625 143.8984375 -380.2578125 142.328125 C-376.58088642 139.55450675 -372.96411586 136.72530183 -369.3828125 133.83032227 C-329.46111991 101.59013479 -284.52909434 75.21969477 -237.8203125 54.203125 C-236.82918457 53.75195312 -235.83805664 53.30078125 -234.81689453 52.8359375 C-162.25581168 19.85930491 -79.85760201 0.27625709 0 0 Z " fill="#82C0AB" transform="translate(2318.8203125,1306.796875)"/>
<path d="M0 0 C0.76473633 0.3599707 1.52947266 0.71994141 2.31738281 1.09082031 C28.8401687 13.59426579 52.97461449 29.68396003 75 49 C76.01126953 49.86238281 76.01126953 49.86238281 77.04296875 50.7421875 C86.21575066 58.60457199 95.64199167 66.74247862 103.36328125 76.05859375 C105.31961898 78.37911845 107.41248931 80.54670568 109.5 82.75 C138.85169067 114.96527024 160.68264655 155.75852359 174 197 C174.32194336 197.99596191 174.64388672 198.99192383 174.97558594 200.01806641 C182.2469771 222.89280615 186.54263735 246.14750612 189 270 C189.13277344 271.25941406 189.26554687 272.51882813 189.40234375 273.81640625 C196.61738545 359.11203624 168.2729716 445.52312663 113.375 510.8125 C100.98766332 525.30284441 87.91387311 539.96668108 72.87109375 551.74609375 C70.69704811 553.45279352 68.57958379 555.18640927 66.47265625 556.97265625 C53.54626947 567.86011328 39.51009464 576.81575213 25 585.4375 C24.36715088 585.81414795 23.73430176 586.1907959 23.08227539 586.57885742 C19.04547018 588.93249015 14.92197601 591.06307397 10.73828125 593.14477539 C9.66231689 593.68074844 8.58635254 594.2167215 7.4777832 594.76893616 C6.66011475 595.17518723 5.84244629 595.58143829 5 596 C4.99967395 595.14457598 4.99967395 595.14457598 4.99934131 594.27187067 C4.98578444 560.36740656 4.94610366 526.46307893 4.87314438 492.55869118 C4.86437909 488.47508161 4.85582902 484.39147162 4.84741211 480.30786133 C4.84489352 479.0885553 4.84489352 479.0885553 4.84232404 477.84461682 C4.8157553 464.73445073 4.80656626 451.62432837 4.80395857 438.51413811 C4.80088401 425.0317789 4.7787651 411.54954479 4.73947543 398.06724209 C4.71587503 389.76800769 4.70660235 381.46902404 4.71648689 373.16976088 C4.72186019 367.45541615 4.70850481 361.74129322 4.6813371 356.02701164 C4.66625706 352.74482082 4.66135862 349.46321729 4.67340279 346.18099976 C4.79670697 308.84197892 -4.23303441 274.81196286 -30 247 C-30.80050781 246.11828125 -31.60101562 245.2365625 -32.42578125 244.328125 C-54.11550254 221.46694576 -86.61666829 208.00849716 -117.95458984 206.89501953 C-142.08840728 206.31586547 -163.04324078 208.42352545 -186 216 C-186.76860352 216.24766113 -187.53720703 216.49532227 -188.32910156 216.75048828 C-210.31902739 223.9299403 -229.36281517 237.12042833 -246 253 C-246.63550781 253.57234375 -247.27101563 254.1446875 -247.92578125 254.734375 C-272.36266619 277.60284704 -285.98960097 309.65502024 -292 342 C-292.15749725 342.73999741 -292.31499451 343.47999481 -292.4772644 344.24241638 C-294.45198668 354.42708864 -294.50422286 364.64783158 -294.74609375 374.984375 C-294.80151859 377.08167572 -294.85774792 379.1789553 -294.91471863 381.2762146 C-295.03506614 385.75973994 -295.15043477 390.24335394 -295.26177979 394.72711182 C-295.43814193 401.82204656 -295.62569095 408.91665539 -295.81591797 416.01123047 C-295.8479406 417.2060095 -295.87996323 418.40078854 -295.91295624 419.63177299 C-295.97816601 422.06361502 -296.04341786 424.49545591 -296.10871124 426.92729568 C-296.20757248 430.62178859 -296.30538136 434.31630822 -296.40301514 438.01083374 C-296.83598312 454.32887936 -297.31018046 470.64524787 -297.82421875 486.9609375 C-297.87492555 488.57057121 -297.87492555 488.57057121 -297.92665672 490.21272278 C-298.21912612 499.47505068 -298.51597829 508.73723684 -298.81393433 517.99938965 C-298.99423634 523.60632934 -299.17350116 529.2133012 -299.3515625 534.8203125 C-299.37964304 535.70357712 -299.40772358 536.58684174 -299.43665504 537.49687195 C-300.05365038 556.99549176 -300.54135505 576.49708871 -301 596 C-301.33 596 -301.66 596 -302 596 C-302 593.03 -302 590.06 -302 587 C-302.68191406 586.7525 -303.36382813 586.505 -304.06640625 586.25 C-307.53380676 584.77254572 -310.71823403 582.94387372 -313.9375 581 C-314.59282715 580.60482178 -315.2481543 580.20964355 -315.92333984 579.80249023 C-322.87374517 575.55131195 -329.47110397 570.86737327 -336 566 C-336.54366211 565.59668457 -337.08732422 565.19336914 -337.64746094 564.77783203 C-341.48550707 561.91831478 -345.25718274 558.98282536 -349 556 C-349.99386719 555.21367187 -350.98773437 554.42734375 -352.01171875 553.6171875 C-360.622841 546.60456125 -368.44934659 538.7627723 -376.3125 530.9375 C-376.8723056 530.38296143 -377.43211121 529.82842285 -378.00888062 529.25708008 C-385.14278116 522.17506862 -391.79661614 514.92908485 -398 507 C-398.57242432 506.28158936 -399.14484863 505.56317871 -399.73461914 504.82299805 C-407.82523138 494.62554549 -415.17473995 484.08043537 -422 473 C-422.41846191 472.32533691 -422.83692383 471.65067383 -423.26806641 470.95556641 C-469.28983369 396.31159973 -481.79157739 305.5858304 -461.9140625 220.57788086 C-456.66811576 199.25740847 -449.28060793 178.88308286 -440 159 C-439.56816406 158.07445312 -439.13632813 157.14890625 -438.69140625 156.1953125 C-424.92798466 127.03482877 -406.83329237 101.15164664 -385.15234375 77.375 C-383.75120328 75.82891396 -382.36728206 74.26698822 -381.00390625 72.6875 C-370.85938325 61.02801042 -359.21901375 50.44496739 -347 41 C-346.41283203 40.54560547 -345.82566406 40.09121094 -345.22070312 39.62304688 C-314.31290542 15.80678448 -280.21026166 -2.98437278 -243 -15 C-242.00403809 -15.32194336 -241.00807617 -15.64388672 -239.98193359 -15.97558594 C-217.12071903 -23.24267773 -193.84748731 -27.59229936 -170 -30 C-169.29182129 -30.07202637 -168.58364258 -30.14405273 -167.85400391 -30.21826172 C-111.13034137 -35.63351135 -51.25989206 -24.75500477 0 0 Z " fill="#AAD4C8" transform="translate(2478,1625)"/>
<path d="M0 0 C0.66 0.33 1.32 0.66 2 1 C-5.26 8.26 -12.52 15.52 -20 23 C-20.66 22.67 -21.32 22.34 -22 22 C-15.003724 14.22235297 -7.95768603 6.81332853 0 0 Z " fill="#98A1AB" transform="translate(2507,2557)"/>
<path d="M0 0 C0 3.68681856 -1.20421182 4.59406646 -3.71484375 7.125 C-4.22144531 7.62 -4.72804688 8.115 -5.25 8.625 C-5.74113281 9.12773438 -6.23226563 9.63046875 -6.73828125 10.1484375 C-9.32257945 12.71206132 -11.28572559 14.62857256 -15 15 C-10.72226048 9.75976909 -6.16137595 5.36068517 -1 1 C-0.67 0.67 -0.34 0.34 0 0 Z " fill="#97A0AA" transform="translate(1628,1169)"/>
</svg>
